# xmcd
#
# Track frame offsets:
#	150
#	15206
#	31000
#	47954
#	70917
#	86343
#	104641
#	119448
#	137766
#	150328
#	160893
#	177581
#	188244
#	208259
#	225744
#	241966
#	256810
#	273531
#	290889
#	305681
#	321632
#	336972
#
# Disc length: 4723
#
# Revision: 2
# Processed by: cddbd v1.5.1PL0 Copyright (c) Steve Scherf et al.
# Submitted via: audiograbber 1.82.02
# Normalized: r1:DSETVAR1,TDELIM( - )
#
DISCID=47127116
DTITLE=Various Artist - The Ultimate Cheeky Party Album [CD 1)
DYEAR=1900
DGENRE=
TTITLE0=The Cheeky Girls - Cheeky Song (Touch My Bum)
TTITLE1=Las Ketchup - Asereje
TTITLE2=The Village People - Y.M.C.A.
TTITLE3=Los Del Rio - Macarena (Spanish)
TTITLE4=Gap Band - Oops Upside Your Head!
TTITLE5=N-Trance - Stayin' Alive
TTITLE6=Carl Douglas - Kung Fu Fighting
TTITLE7=Damien - Time Warp
TTITLE8=Kids from Fame - Hi - Fidelity
TTITLE9=Big Bopper - Let's twist again
TTITLE10=Lou Bega - Mambo No.5 (Radio Edit)
TTITLE11=Perez Prado - Guaglione
TTITLE12=Whigfield - Saturday Night
TTITLE13=Scooter - The Logical Song
TTITLE14=Kelly Llorenna - Tell ItTo My Heart
TTITLE15=Aqua - Barbie Girl
TTITLE16=T Spoon - Sex on the beach
TTITLE17=Wham - Wake Me Up Before You Go - Go
TTITLE18=B Boys - Who Let The Dogs Out
TTITLE19=Rick Astley - Never Gonna Give You Up
TTITLE20=Sinita - So Macho
TTITLE21=Cyndi Lauper - Girls Just Want To Have Fun
EXTD=
EXTT0=
EXTT1=
EXTT2=
EXTT3=
EXTT4=
EXTT5=
EXTT6=
EXTT7=
EXTT8=
EXTT9=
EXTT10=
EXTT11=
EXTT12=
EXTT13=
EXTT14=
EXTT15=
EXTT16=
EXTT17=
EXTT18=
EXTT19=
EXTT20=
EXTT21=
PLAYORDER=
